<?xml version="1.0" encoding="utf-8"?>
<svg xmlns="http://www.w3.org/2000/svg" style="margin: auto; background: none; display: block; shape-rendering: auto;" width="280" height="250" preserveAspectRatio="xMidYMid">
<style type="text/css">
  text {
    text-anchor: middle; font-size: 40px; opacity: 0;
  }
</style>
<g style="transform-origin:140px 125px;transform:scale(1)">
<g transform="translate(140,125)">
  <g transform="translate(0,0)"><g class="path" style="transform: translate(0px, 0px) rotate(0deg) scale(1, 1) skewX(0deg) skewY(0deg); opacity: 1; transform-origin: -77.74px -3.17345px; animation: 1s linear -0.6s infinite normal forwards running slide-ltr-2d66aefb-b8dd-40a8-92d3-4209b8847bc4;"><path d="M20.24-3.40L20.24 0L3.60 0L3.60-28L7.40-28L7.40-3.40L20.24-3.40" fill="#b5b5b5" stroke="none" stroke-width="none" transform="translate(-89.6600341796875,10.826550514914768)" style="fill: rgb(181, 181, 181);"></path></g><g class="path" style="transform: translate(0px, 0px) rotate(0deg) scale(1, 1) skewX(0deg) skewY(0deg); opacity: 1; transform-origin: -57.26px 0.42655px; animation: 1s linear -0.54s infinite normal forwards running slide-ltr-2d66aefb-b8dd-40a8-92d3-4209b8847bc4;"><path d="M39.08-10.40L39.08-10.40L39.08-10.40Q39.08-11.96 38.58-13.36L38.58-13.36L38.58-13.36Q38.08-14.76 37.18-15.80L37.18-15.80L37.18-15.80Q36.28-16.84 35.06-17.46L35.06-17.46L35.06-17.46Q33.84-18.08 32.40-18.08L32.40-18.08L32.40-18.08Q29.24-18.08 27.48-16L27.48-16L27.48-16Q25.72-13.92 25.72-10.48L25.72-10.48L25.72-10.48Q25.72-8.92 26.22-7.50L26.22-7.50L26.22-7.50Q26.72-6.08 27.62-5.02L27.62-5.02L27.62-5.02Q28.52-3.96 29.74-3.34L29.74-3.34L29.74-3.34Q30.96-2.72 32.40-2.72L32.40-2.72L32.40-2.72Q33.96-2.72 35.20-3.28L35.20-3.28L35.20-3.28Q36.44-3.84 37.30-4.86L37.30-4.86L37.30-4.86Q38.16-5.88 38.62-7.28L38.62-7.28L38.62-7.28Q39.08-8.68 39.08-10.40zM22.04-10.40L22.04-10.40L22.04-10.40Q22.04-12.92 22.84-14.94L22.84-14.94L22.84-14.94Q23.64-16.96 25.02-18.36L25.02-18.36L25.02-18.36Q26.40-19.76 28.30-20.52L28.30-20.52L28.30-20.52Q30.20-21.28 32.40-21.28L32.40-21.28L32.40-21.28Q34.56-21.28 36.46-20.52L36.46-20.52L36.46-20.52Q38.36-19.76 39.76-18.36L39.76-18.36L39.76-18.36Q41.16-16.96 41.96-14.96L41.96-14.96L41.96-14.96Q42.76-12.96 42.76-10.48L42.76-10.48L42.76-10.48Q42.76-8 41.98-5.98L41.98-5.98L41.98-5.98Q41.20-3.96 39.80-2.52L39.80-2.52L39.80-2.52Q38.40-1.08 36.50-0.30L36.50-0.30L36.50-0.30Q34.60 0.48 32.40 0.48L32.40 0.48L32.40 0.48Q30.16 0.48 28.26-0.32L28.26-0.32L28.26-0.32Q26.36-1.12 24.98-2.56L24.98-2.56L24.98-2.56Q23.60-4 22.82-6L22.82-6L22.82-6Q22.04-8 22.04-10.40" fill="#b5b5b5" stroke="none" stroke-width="none" transform="translate(-89.6600341796875,10.826550514914768)" style="fill: rgb(181, 181, 181);"></path></g><g class="path" style="transform: translate(0px, 0px) rotate(0deg) scale(1, 1) skewX(0deg) skewY(0deg); opacity: 1; transform-origin: -32.86px 0.42655px; animation: 1s linear -0.48s infinite normal forwards running slide-ltr-2d66aefb-b8dd-40a8-92d3-4209b8847bc4;"><path d="M46.16-10.28L46.16-10.28L46.16-10.28Q46.16-12.60 46.88-14.62L46.88-14.62L46.88-14.62Q47.60-16.64 48.90-18.12L48.90-18.12L48.90-18.12Q50.20-19.60 52.02-20.44L52.02-20.44L52.02-20.44Q53.84-21.28 56-21.28L56-21.28L56-21.28Q57.80-21.28 59.26-20.66L59.26-20.66L59.26-20.66Q60.72-20.04 61.80-19.12L61.80-19.12L61.80-20.80L65.08-20.80L65.08-5.04L65.08-5.04Q65.08-3.52 65.82-3.06L65.82-3.06L65.82-3.06Q66.56-2.60 67.44-2.60L67.44-2.60L66.68 0.20L66.68 0.20Q62.84 0.20 62.04-2.92L62.04-2.92L62.04-2.92Q61.56-2.28 60.94-1.66L60.94-1.66L60.94-1.66Q60.32-1.04 59.52-0.56L59.52-0.56L59.52-0.56Q58.72-0.08 57.72 0.20L57.72 0.20L57.72 0.20Q56.72 0.48 55.52 0.48L55.52 0.48L55.52 0.48Q53.56 0.48 51.86-0.28L51.86-0.28L51.86-0.28Q50.16-1.04 48.90-2.44L48.90-2.44L48.90-2.44Q47.64-3.84 46.90-5.82L46.90-5.82L46.90-5.82Q46.16-7.80 46.16-10.28zM56.32-2.72L56.32-2.72L56.32-2.72Q57.84-2.72 59.20-3.44L59.20-3.44L59.20-3.44Q60.56-4.16 61.48-5.32L61.48-5.32L61.48-16.48L61.48-16.48Q60.40-17.24 59.10-17.70L59.10-17.70L59.10-17.70Q57.80-18.16 56.36-18.16L56.36-18.16L56.36-18.16Q54.92-18.16 53.72-17.60L53.72-17.60L53.72-17.60Q52.52-17.04 51.66-16.02L51.66-16.02L51.66-16.02Q50.80-15 50.32-13.56L50.32-13.56L50.32-13.56Q49.84-12.12 49.84-10.40L49.84-10.40L49.84-10.40Q49.84-8.72 50.32-7.30L50.32-7.30L50.32-7.30Q50.80-5.88 51.68-4.86L51.68-4.86L51.68-4.86Q52.56-3.84 53.74-3.28L53.74-3.28L53.74-3.28Q54.92-2.72 56.32-2.72" fill="#b5b5b5" stroke="none" stroke-width="none" transform="translate(-89.6600341796875,10.826550514914768)" style="fill: rgb(181, 181, 181);"></path></g><g class="path" style="transform: translate(0px, 0px) rotate(0deg) scale(1, 1) skewX(0deg) skewY(0deg); opacity: 1; transform-origin: -8.66003px -3.73345px; animation: 1s linear -0.42s infinite normal forwards running slide-ltr-2d66aefb-b8dd-40a8-92d3-4209b8847bc4;"><path d="M79.72 0.48L79.72 0.48L79.72 0.48Q77.80 0.48 76.10-0.28L76.10-0.28L76.10-0.28Q74.40-1.04 73.14-2.44L73.14-2.44L73.14-2.44Q71.88-3.84 71.16-5.82L71.16-5.82L71.16-5.82Q70.44-7.80 70.44-10.28L70.44-10.28L70.44-10.28Q70.44-12.64 71.18-14.66L71.18-14.66L71.18-14.66Q71.92-16.68 73.18-18.14L73.18-18.14L73.18-18.14Q74.44-19.60 76.12-20.44L76.12-20.44L76.12-20.44Q77.80-21.28 79.68-21.28L79.68-21.28L79.68-21.28Q81.76-21.28 83.26-20.44L83.26-20.44L83.26-20.44Q84.76-19.60 85.60-18.72L85.60-18.72L85.60-29.60L89.20-29.60L89.20-5.04L89.20-5.04Q89.20-3.52 89.94-3.06L89.94-3.06L89.94-3.06Q90.68-2.60 91.56-2.60L91.56-2.60L90.80 0.20L90.80 0.20Q87.00 0.20 86.16-2.84L86.16-2.84L86.16-2.84Q85.24-1.56 83.68-0.54L83.68-0.54L83.68-0.54Q82.12 0.48 79.72 0.48zM80.52-2.72L80.52-2.72L80.52-2.72Q82.00-2.72 83.34-3.42L83.34-3.42L83.34-3.42Q84.68-4.12 85.60-5.24L85.60-5.24L85.60-15.56L85.60-15.56Q84.84-16.52 83.50-17.34L83.50-17.34L83.50-17.34Q82.16-18.16 80.48-18.16L80.48-18.16L80.48-18.16Q79.04-18.16 77.86-17.56L77.86-17.56L77.86-17.56Q76.68-16.96 75.84-15.92L75.84-15.92L75.84-15.92Q75.00-14.88 74.56-13.46L74.56-13.46L74.56-13.46Q74.12-12.04 74.12-10.40L74.12-10.40L74.12-10.40Q74.12-8.72 74.60-7.32L74.60-7.32L74.60-7.32Q75.08-5.92 75.94-4.90L75.94-4.90L75.94-4.90Q76.80-3.88 77.98-3.30L77.98-3.30L77.98-3.30Q79.16-2.72 80.52-2.72" fill="#b5b5b5" stroke="none" stroke-width="none" transform="translate(-89.6600341796875,10.826550514914768)" style="fill: rgb(181, 181, 181);"></path></g><g class="path" style="transform: translate(0px, 0px) rotate(0deg) scale(1, 1) skewX(0deg) skewY(0deg); opacity: 1; transform-origin: 8.49997px 0.426551px; animation: 1s linear -0.36s infinite normal forwards running slide-ltr-2d66aefb-b8dd-40a8-92d3-4209b8847bc4;"><path d="M99.96-20.80L99.96 0L96.36 0L96.36-20.80L99.96-20.80" fill="#b5b5b5" stroke="none" stroke-width="none" transform="translate(-89.6600341796875,10.826550514914768)" style="fill: rgb(181, 181, 181);"></path></g><g class="path" style="transform: translate(0px, 0px) rotate(0deg) scale(1, 1) skewX(0deg) skewY(0deg); opacity: 1; transform-origin: 8.49997px -16.0534px; animation: 1s linear -0.3s infinite normal forwards running slide-ltr-2d66aefb-b8dd-40a8-92d3-4209b8847bc4;"><path d="M98.16-24.36L98.16-24.36L98.16-24.36Q97.12-24.36 96.38-25.10L96.38-25.10L96.38-25.10Q95.64-25.84 95.64-26.88L95.64-26.88L95.64-26.88Q95.64-28.04 96.32-28.72L96.32-28.72L96.32-28.72Q97.00-29.40 98.16-29.40L98.16-29.40L98.16-29.40Q99.20-29.40 99.94-28.66L99.94-28.66L99.94-28.66Q100.68-27.92 100.68-26.88L100.68-26.88L100.68-26.88Q100.68-25.72 100.00-25.04L100.00-25.04L100.00-25.04Q99.32-24.36 98.16-24.36" fill="#b5b5b5" stroke="none" stroke-width="none" transform="translate(-89.6600341796875,10.826550514914768)" style="fill: rgb(181, 181, 181);"></path></g><g class="path" style="transform: translate(0px, 0px) rotate(0deg) scale(1, 1) skewX(0deg) skewY(0deg); opacity: 1; transform-origin: 25.44px 0.18655px; animation: 1s linear -0.24s infinite normal forwards running slide-ltr-2d66aefb-b8dd-40a8-92d3-4209b8847bc4;"><path d="M109.84-20.80L109.84-17.32L109.84-17.32Q110.96-19 112.70-20.14L112.70-20.14L112.70-20.14Q114.44-21.28 116.84-21.28L116.84-21.28L116.84-21.28Q120.36-21.28 122.10-19.16L122.10-19.16L122.10-19.16Q123.84-17.04 123.84-13.56L123.84-13.56L123.84 0L120.24 0L120.24-13.16L120.24-13.16Q120.24-15.44 119.20-16.78L119.20-16.78L119.20-16.78Q118.16-18.12 116.24-18.12L116.24-18.12L116.24-18.12Q115.32-18.12 114.44-17.78L114.44-17.78L114.44-17.78Q113.56-17.44 112.74-16.84L112.74-16.84L112.74-16.84Q111.92-16.24 111.22-15.44L111.22-15.44L111.22-15.44Q110.52-14.64 109.96-13.76L109.96-13.76L109.96 0L106.36 0L106.36-20.80L109.84-20.80" fill="#b5b5b5" stroke="none" stroke-width="none" transform="translate(-89.6600341796875,10.826550514914768)" style="fill: rgb(181, 181, 181);"></path></g><g class="path" style="transform: translate(0px, 0px) rotate(0deg) scale(1, 1) skewX(0deg) skewY(0deg); opacity: 1; transform-origin: 48.28px 4.82655px; animation: 1s linear -0.18s infinite normal forwards running slide-ltr-2d66aefb-b8dd-40a8-92d3-4209b8847bc4;"><path d="M138.28-21.28L138.28-21.28L138.28-21.28Q140.08-21.28 141.50-20.68L141.50-20.68L141.50-20.68Q142.92-20.08 143.96-19.20L143.96-19.20L143.96-20.80L147.24-20.80L147.24-0.48L147.24-0.48Q147.24 2.12 146.56 3.96L146.56 3.96L146.56 3.96Q145.88 5.80 144.62 6.98L144.62 6.98L144.62 6.98Q143.36 8.16 141.60 8.72L141.60 8.72L141.60 8.72Q139.84 9.28 137.68 9.28L137.68 9.28L137.68 9.28Q135.80 9.28 134.08 8.84L134.08 8.84L134.08 8.84Q132.36 8.40 131.00 7.52L131.00 7.52L132.32 4.40L132.32 4.40Q133.28 5.16 134.56 5.66L134.56 5.66L134.56 5.66Q135.84 6.16 137.68 6.16L137.68 6.16L137.68 6.16Q140.52 6.16 142.14 4.68L142.14 4.68L142.14 4.68Q143.76 3.20 143.76-0.12L143.76-0.12L143.76-2.68L143.76-2.68Q142.96-1.72 141.46-0.86L141.46-0.86L141.46-0.86Q139.96 0 137.88 0L137.88 0L137.88 0Q136.12 0 134.44-0.70L134.44-0.70L134.44-0.70Q132.76-1.40 131.48-2.74L131.48-2.74L131.48-2.74Q130.20-4.08 129.42-6.02L129.42-6.02L129.42-6.02Q128.64-7.96 128.64-10.48L128.64-10.48L128.64-10.48Q128.64-12.80 129.40-14.78L129.40-14.78L129.40-14.78Q130.16-16.76 131.46-18.20L131.46-18.20L131.46-18.20Q132.76-19.64 134.52-20.46L134.52-20.46L134.52-20.46Q136.28-21.28 138.28-21.28zM138.68-3.20L138.68-3.20L138.68-3.20Q140.28-3.20 141.56-3.92L141.56-3.92L141.56-3.92Q142.84-4.64 143.64-5.60L143.64-5.60L143.64-16.48L143.64-16.48Q142.72-17.12 141.52-17.64L141.52-17.64L141.52-17.64Q140.32-18.16 138.64-18.16L138.64-18.16L138.64-18.16Q137.40-18.16 136.26-17.66L136.26-17.66L136.26-17.66Q135.12-17.16 134.24-16.20L134.24-16.20L134.24-16.20Q133.36-15.24 132.84-13.86L132.84-13.86L132.84-13.86Q132.32-12.48 132.32-10.68L132.32-10.68L132.32-10.68Q132.32-8.96 132.84-7.58L132.84-7.58L132.84-7.58Q133.36-6.20 134.24-5.22L134.24-5.22L134.24-5.22Q135.12-4.24 136.26-3.72L136.26-3.72L136.26-3.72Q137.40-3.20 138.68-3.20" fill="#b5b5b5" stroke="none" stroke-width="none" transform="translate(-89.6600341796875,10.826550514914768)" style="fill: rgb(181, 181, 181);"></path></g><g class="path" style="transform: translate(0px, 0px) rotate(0deg) scale(1, 1) skewX(0deg) skewY(0deg); opacity: 1; transform-origin: 66.58px 8.62655px; animation: 1s linear -0.12s infinite normal forwards running slide-ltr-2d66aefb-b8dd-40a8-92d3-4209b8847bc4;"><path d="M153.56-2.20L153.56-2.20L153.56-2.20Q153.56-3.44 154.26-4.16L154.26-4.16L154.26-4.16Q154.96-4.88 156.24-4.88L156.24-4.88L156.24-4.88Q157.28-4.88 158.10-4.08L158.10-4.08L158.10-4.08Q158.92-3.28 158.92-2.20L158.92-2.20L158.92-2.20Q158.92-1 158.16-0.26L158.16-0.26L158.16-0.26Q157.40 0.48 156.24 0.48L156.24 0.48L156.24 0.48Q155.16 0.48 154.36-0.32L154.36-0.32L154.36-0.32Q153.56-1.12 153.56-2.20" fill="#b5b5b5" stroke="none" stroke-width="none" transform="translate(-89.6600341796875,10.826550514914768)" style="fill: rgb(181, 181, 181);"></path></g><g class="path" style="transform: translate(0px, 0px) rotate(0deg) scale(1, 1) skewX(0deg) skewY(0deg); opacity: 1; transform-origin: 78.58px 8.62655px; animation: 1s linear -0.06s infinite normal forwards running slide-ltr-2d66aefb-b8dd-40a8-92d3-4209b8847bc4;"><path d="M165.56-2.20L165.56-2.20L165.56-2.20Q165.56-3.44 166.26-4.16L166.26-4.16L166.26-4.16Q166.96-4.88 168.24-4.88L168.24-4.88L168.24-4.88Q169.28-4.88 170.10-4.08L170.10-4.08L170.10-4.08Q170.92-3.28 170.92-2.20L170.92-2.20L170.92-2.20Q170.92-1 170.16-0.26L170.16-0.26L170.16-0.26Q169.40 0.48 168.24 0.48L168.24 0.48L168.24 0.48Q167.16 0.48 166.36-0.32L166.36-0.32L166.36-0.32Q165.56-1.12 165.56-2.20" fill="#b5b5b5" stroke="none" stroke-width="none" transform="translate(-89.6600341796875,10.826550514914768)" style="fill: rgb(181, 181, 181);"></path></g><g class="path" style="transform: translate(0px, 0px) rotate(0deg) scale(1, 1) skewX(0deg) skewY(0deg); opacity: 1; transform-origin: 90.58px 8.62655px; animation: 1s linear 0s infinite normal forwards running slide-ltr-2d66aefb-b8dd-40a8-92d3-4209b8847bc4;"><path d="M177.56-2.20L177.56-2.20L177.56-2.20Q177.56-3.44 178.26-4.16L178.26-4.16L178.26-4.16Q178.96-4.88 180.24-4.88L180.24-4.88L180.24-4.88Q181.28-4.88 182.10-4.08L182.10-4.08L182.10-4.08Q182.92-3.28 182.92-2.20L182.92-2.20L182.92-2.20Q182.92-1 182.16-0.26L182.16-0.26L182.16-0.26Q181.40 0.48 180.24 0.48L180.24 0.48L180.24 0.48Q179.16 0.48 178.36-0.32L178.36-0.32L178.36-0.32Q177.56-1.12 177.56-2.20" fill="#b5b5b5" stroke="none" stroke-width="none" transform="translate(-89.6600341796875,10.826550514914768)" style="fill: rgb(181, 181, 181);"></path></g></g>
</g>
</g>
<style id="slide-ltr-2d66aefb-b8dd-40a8-92d3-4209b8847bc4" data-anikit="">@keyframes slide-ltr-2d66aefb-b8dd-40a8-92d3-4209b8847bc4
{
  0% {
    animation-timing-function: cubic-bezier(0.4652,0.1051,0.774,0.6426);
    transform: translate(0px,0px) rotate(0deg) scale(1,1) skewX(0deg) skewY(0deg);
    opacity: 1;
  }
  22.5% {
    animation-timing-function: cubic-bezier(0.4142,0.3131,0.7623,0.6513);
    transform: translate(12.667px,0px) rotate(0deg) scale(1,1) skewX(0deg) skewY(0deg);
    opacity: 1;
  }
  45% {
    animation-timing-function: cubic-bezier(0.3615,0.331,0.9646,1.3461);
    transform: translate(39.167px,0px) rotate(0deg) scale(1,1) skewX(0deg) skewY(0deg);
    opacity: 1;
  }
  47.5% {
    animation-timing-function: cubic-bezier(0.7006,0.3332,0.6667,0.6667);
    transform: translate(43.884px,0px) rotate(0deg) scale(1,1) skewX(0deg) skewY(0deg);
    opacity: 0;
  }
  50% {
    animation-timing-function: cubic-bezier(0.1604,0.3176,-0.0218,0.6965);
    transform: translate(-53px,0px) rotate(0deg) scale(1,1) skewX(0deg) skewY(0deg);
    opacity: 0;
  }
  51% {
    animation-timing-function: cubic-bezier(0.1983,0.3529,0.5263,0.6945);
    transform: translate(-47.647px,0px) rotate(0deg) scale(1,1) skewX(0deg) skewY(0deg);
    opacity: 0;
  }
  80.4% {
    animation-timing-function: cubic-bezier(0.2342,0.3708,0.5422,0.9065);
    transform: translate(-10.176px,0px) rotate(0deg) scale(1,1) skewX(0deg) skewY(0deg);
    opacity: 1;
  }
  100% {
    transform: translate(0px,0px) rotate(0deg) scale(1,1) skewX(0deg) skewY(0deg);
    opacity: 1;
  }
}</style></svg>